<svg height='451' width='451'  fill="#51A7F9" xmlns="http://www.w3.org/2000/svg" viewBox="0 0 100 100" x="0px" y="0px"><title>Artboard 68</title><circle cx="22.43" cy="73.52" r="3.63"></circle><path d="M25.06,78H19.8A4.09,4.09,0,0,0,16,82.2V87H29V82.2A4.21,4.21,0,0,0,25.06,78Z"></path><circle cx="22.43" cy="19.52" r="3.63"></circle><path d="M25.06,24H19.8A4.09,4.09,0,0,0,16,28.2V33H29V28.2A4.21,4.21,0,0,0,25.06,24Z"></path><path d="M91.39,83.86a6.34,6.34,0,0,0-7.17-4.05L76.59,58.89a18.24,18.24,0,1,0-13-34l-1.38-3.81a6.34,6.34,0,1,0-9-3.39h0a6.29,6.29,0,0,0,7.16,4.07l1.47,4.06A18.32,18.32,0,0,0,54,35.14L35,28.61a13.24,13.24,0,1,0-.6,1.91l19,6.53a18.16,18.16,0,0,0-.57,4.45c0,.43,0,.85.06,1.28l-16,5.85a6.34,6.34,0,1,0-3.37,9h0a6.35,6.35,0,0,0,4.05-7.17l15.6-5.69a18.14,18.14,0,0,0,2.93,7L33.74,72.7a13.42,13.42,0,0,0-.86-1.39,13.25,13.25,0,1,0-13,20.76,13.41,13.41,0,0,0,2.22.19A13.25,13.25,0,0,0,34.6,74.63L57.3,53.45a18.36,18.36,0,0,0,5,4.05l-3.11,5.91a6.35,6.35,0,1,0-2,12.36A6.35,6.35,0,0,0,61,64.34l3.15-6a18.15,18.15,0,0,0,10.54,1L82.35,80.5a6.34,6.34,0,1,0,9,3.35ZM55.07,17h0a4.35,4.35,0,1,1,5.57,2.61A4.32,4.32,0,0,1,55.07,17Zm-33,19.88A11.25,11.25,0,1,1,33.34,25.61,11.26,11.26,0,0,1,22.09,36.86ZM32.79,55.8h0a4.35,4.35,0,1,1,2.6-5.58A4.35,4.35,0,0,1,32.79,55.8Zm.39,25.06A11.25,11.25,0,1,1,22.06,67.75a11.38,11.38,0,0,1,1.88.16,11.17,11.17,0,0,1,7.3,4.56,11.32,11.32,0,0,1,1.23,2.22v0A11.17,11.17,0,0,1,33.18,80.86ZM61,71.44a4.35,4.35,0,1,1-1.82-5.87A4.32,4.32,0,0,1,61,71.44ZM54.81,41.5A16.25,16.25,0,1,1,71.06,57.75,16.27,16.27,0,0,1,54.81,41.5ZM89.37,87.87a4.35,4.35,0,1,1,.14-3.33A4.32,4.32,0,0,1,89.37,87.87Z"></path><path d="M75.74,39.44A4.88,4.88,0,0,0,77,36.19a5.39,5.39,0,0,0-4-5A1,1,0,0,0,73,31V29a1,1,0,0,0-2,0v2H69V29a1,1,0,0,0-2,0v2H65a1,1,0,0,0,0,2h1V50H65a1,1,0,0,0,0,2h2v2a1,1,0,0,0,2,0V52h2v2a1,1,0,0,0,2,0V52h.5A6.63,6.63,0,0,0,80,45.59v-.16A6.62,6.62,0,0,0,75.74,39.44ZM71.63,33A3.42,3.42,0,0,1,75,36.22,3.14,3.14,0,0,1,73,39H68V33ZM78,45.59A4.61,4.61,0,0,1,73.5,50H68V41h5.5A4.62,4.62,0,0,1,78,45.43Z"></path></svg>