<svg height='451' width='451'  fill="#51A7F9" xmlns="http://www.w3.org/2000/svg" xmlns:xlink="http://www.w3.org/1999/xlink" version="1.1" x="0px" y="0px" viewBox="0 0 30 21.121" enable-background="new 0 0 30 21.121" xml:space="preserve"><polygon points="18.71,18.729 17.831,18.729 17.831,20.243 13.589,20.243 13.589,18.729 12.71,18.729 12.71,20.243 11.512,20.243   11.512,21.122 12.71,21.122 18.71,21.122 19.909,21.122 19.909,20.243 18.71,20.243 "></polygon><path d="M16.276,13.208h3.631v-6.03h-3.631V13.208z M17.155,8.058h1.873v4.271h-1.873V8.058z"></path><path d="M11.515,13.208h3.629v-6.03h-3.629V13.208z M12.394,8.058h1.873v4.271h-1.873V8.058z"></path><path d="M24.669,2.204H6.752v3.791h17.917V2.204z M23.791,5.116H7.631V3.083h16.16V5.116L23.791,5.116z"></path><rect x="25.308" y="18.641" width="2.237" height="0.879"></rect><path d="M28.765,9.054h-1.897V1.195c0-0.317-0.125-0.618-0.351-0.845s-0.525-0.352-0.847-0.352H5.751  c-0.318,0-0.619,0.125-0.848,0.352C4.679,0.577,4.556,0.876,4.556,1.195v5.983H1.644C0.737,7.179,0,7.915,0,8.823V19.48  c0,0.905,0.737,1.642,1.644,1.642h7.045c0.905,0,1.643-0.735,1.643-1.642v-1.562h12.52v1.966c0,0.683,0.557,1.237,1.238,1.237h4.674  c0.684,0,1.237-0.556,1.237-1.237v-9.593C30.001,9.608,29.446,9.054,28.765,9.054z M9.454,19.479c0,0.42-0.344,0.764-0.766,0.764  H1.646c-0.422,0-0.766-0.344-0.766-0.764V8.821c0-0.421,0.344-0.765,0.766-0.765h7.043c0.422,0,0.766,0.343,0.766,0.765V19.479z   M8.688,7.179H5.435V1.195c0-0.085,0.032-0.165,0.092-0.224c0.06-0.061,0.14-0.094,0.226-0.094h19.919  c0.085,0,0.164,0.033,0.223,0.093c0.063,0.062,0.096,0.142,0.096,0.225v7.858h-1.318V7.179h-3.629v6.029h1.813v1.312H10.334V8.823  C10.332,7.915,9.595,7.179,8.688,7.179z M22.853,10.29v2.039h-0.934V8.057h1.872v1.058C23.256,9.251,22.853,9.715,22.853,10.29z   M10.332,17.038v-1.642h12.521v1.642H10.332z M29.122,19.884c0,0.197-0.161,0.357-0.357,0.357H24.09  c-0.198,0-0.358-0.16-0.358-0.357v-1.967v-3.398v-4.227c0-0.194,0.164-0.359,0.358-0.359h4.675c0.196,0,0.357,0.161,0.357,0.359  V19.884z"></path><path d="M24.658,14.305h3.536V10.86h-3.536V14.305z M25.537,11.739h1.778v1.688h-1.778V11.739z"></path><rect x="24.658" y="17.038" width="3.536" height="0.879"></rect><rect x="24.658" y="15.232" width="3.536" height="0.879"></rect><rect x="3.64" y="18.641" width="3.053" height="0.879"></rect><path d="M5.558,17.917H8.33v-4.904H5.558V17.917z M6.437,13.892h1.016v3.146H6.437V13.892z"></path><path d="M4.776,13.013H2.003v4.904h2.773V13.013z M3.897,17.038H2.882v-3.146h1.016V17.038z"></path><path d="M2.003,12.231h6.328V9.181H2.003V12.231z M2.882,10.06h4.57v1.293h-4.57V10.06z"></path></svg>