<svg height='451' width='451'  fill="#823FFF" xmlns:x="http://ns.adobe.com/Extensibility/1.0/" xmlns:i="http://ns.adobe.com/AdobeIllustrator/10.0/" xmlns:graph="http://ns.adobe.com/Graphs/1.0/" xmlns="http://www.w3.org/2000/svg" xmlns:xlink="http://www.w3.org/1999/xlink" version="1.1" x="0px" y="0px" viewBox="0 0 64 64" enable-background="new 0 0 64 64" xml:space="preserve"><metadata><sfw xmlns="http://ns.adobe.com/SaveForWeb/1.0/"><slices></slices><sliceSourceBounds y="-8160" x="-8165" width="16389" height="16384" bottomLeftOrigin="true"></sliceSourceBounds></sfw></metadata><g><g><path d="M34.48,31.685C34.808,31.204,35,30.625,35,30c0-1.654-1.346-3-3-3s-3,1.346-3,3c0,0.625,0.192,1.204,0.52,1.685    C28.022,32.549,27,34.149,27,36c0,0.553,0.448,1,1,1s1-0.447,1-1c0-1.654,1.346-3,3-3s3,1.346,3,3c0,0.553,0.447,1,1,1    s1-0.447,1-1C37,34.149,35.978,32.549,34.48,31.685z M31,30c0-0.551,0.449-1,1-1s1,0.449,1,1s-0.449,1-1,1S31,30.551,31,30z"></path><path d="M48.971,43.971c-0.996,0-1.946,0.291-2.757,0.829l-5.766-5.766C42.039,37.125,43,34.674,43,32    c0-2.673-0.961-5.125-2.552-7.034l5.766-5.766c0.811,0.538,1.761,0.829,2.757,0.829c1.336,0,2.591-0.52,3.535-1.464    s1.465-2.2,1.465-3.535c0-1.336-0.521-2.591-1.465-3.536s-2.199-1.464-3.535-1.464s-2.591,0.52-3.535,1.464    s-1.465,2.2-1.465,3.536c0,0.996,0.291,1.946,0.829,2.757l-5.766,5.766C37.125,21.96,34.674,21,32,21    c-2.673,0-5.125,0.96-7.034,2.552l-5.766-5.766c0.538-0.811,0.829-1.761,0.829-2.757c0-1.336-0.52-2.591-1.464-3.536    s-2.2-1.464-3.535-1.464c-1.336,0-2.591,0.52-3.536,1.464s-1.464,2.2-1.464,3.536c0,1.335,0.52,2.591,1.464,3.535    s2.2,1.464,3.536,1.464c0.996,0,1.946-0.291,2.757-0.829l5.766,5.766C21.96,26.875,21,29.327,21,32    c0,2.674,0.96,5.125,2.552,7.034L17.787,44.8c-0.811-0.538-1.761-0.829-2.757-0.829c-1.336,0-2.591,0.521-3.536,1.465    s-1.464,2.199-1.464,3.535s0.52,2.591,1.464,3.535s2.2,1.465,3.536,1.465c1.335,0,2.591-0.521,3.535-1.465    s1.464-2.199,1.464-3.535c0-0.996-0.291-1.946-0.829-2.757l5.766-5.766C26.875,42.039,29.327,43,32,43    c2.674,0,5.125-0.961,7.034-2.552l5.766,5.766c-0.538,0.811-0.829,1.761-0.829,2.757c0,1.336,0.521,2.592,1.465,3.535    c0.943,0.944,2.199,1.465,3.535,1.465s2.592-0.521,3.535-1.465c0.944-0.943,1.465-2.199,1.465-3.535s-0.521-2.592-1.465-3.535    C51.562,44.491,50.307,43.971,48.971,43.971z M46.85,12.908c0.566-0.566,1.319-0.878,2.121-0.878s1.555,0.312,2.121,0.878    c0.566,0.567,0.879,1.32,0.879,2.122c0,0.801-0.312,1.554-0.879,2.121c-1.133,1.133-3.109,1.133-4.242,0    c-0.566-0.567-0.879-1.32-0.879-2.121C45.971,14.228,46.283,13.475,46.85,12.908z M12.908,17.151    c-0.566-0.567-0.878-1.32-0.878-2.121c0-0.802,0.312-1.555,0.878-2.122c0.567-0.566,1.32-0.878,2.122-0.878    c0.801,0,1.554,0.312,2.121,0.878c0.566,0.567,0.878,1.32,0.878,2.122c0,0.801-0.312,1.554-0.878,2.121    C16.017,18.284,14.042,18.283,12.908,17.151z M17.151,51.092c-1.134,1.133-3.109,1.133-4.243,0    c-0.566-0.566-0.878-1.319-0.878-2.121s0.312-1.555,0.878-2.121c0.567-0.566,1.32-0.879,2.122-0.879    c0.801,0,1.554,0.312,2.121,0.879c0.566,0.566,0.878,1.319,0.878,2.121S17.717,50.525,17.151,51.092z M23,32c0-4.962,4.038-9,9-9    c4.963,0,9,4.038,9,9c0,4.963-4.037,9-9,9C27.038,41,23,36.963,23,32z M51.092,51.092c-1.133,1.133-3.109,1.133-4.242,0    c-0.566-0.566-0.879-1.319-0.879-2.121s0.312-1.555,0.879-2.121s1.319-0.879,2.121-0.879s1.555,0.312,2.121,0.879    s0.879,1.319,0.879,2.121S51.658,50.525,51.092,51.092z"></path></g></g></svg>