<?xml version="1.0" encoding="utf-8"?>
<!-- Generator: Adobe Illustrator 21.0.2, SVG Export Plug-In . SVG Version: 6.00 Build 0)  -->
<svg version="1.1" id="Layer_1" xmlns="http://www.w3.org/2000/svg" xmlns:xlink="http://www.w3.org/1999/xlink" x="0px" y="0px"
	 viewBox="0 0 445.8 155.2" style="enable-background:new 0 0 445.8 155.2;" xml:space="preserve">
<style type="text/css">
	.st0{fill:url(#SVGID_1_);}
	.st1{fill:none;}
	.st2{enable-background:new    ;}
	.st3{fill:#ED7203;}
	.st4{fill:#FF5900;}
	.st5{fill:#FFFFFF;}
	.st6{fill:url(#SVGID_2_);}
	.st7{fill:url(#SVGID_3_);}
	.st8{fill:#75767B;}
	.st9{fill:url(#SVGID_4_);}
</style>
<linearGradient id="SVGID_1_" gradientUnits="userSpaceOnUse" x1="1449.8605" y1="1160.6893" x2="2410.9907" y2="354.2054" gradientTransform="matrix(1 0 0 -1 0 155.89)">
	<stop  offset="1.574519e-02" style="stop-color:#FCC200"/>
	<stop  offset="0.4549" style="stop-color:#EE7D00"/>
	<stop  offset="1" style="stop-color:#E52057"/>
</linearGradient>
<rect x="1570.8" y="-847" class="st0" width="841.9" height="593.8"/>
<g>
	<g>
		<rect x="100.8" y="-490.5" class="st1" width="311.6" height="40.8"/>
		
			<text transform="matrix(1 0 0 1 263.2812 -461.5909)" class="st3" style="font-family:'HelveticaNeue-Bold'; font-size:40.458px;">com.au</text>
	</g>
	<g>
		<g>
			<path class="st3" d="M87.8-606.8H0L15.9-569C25.6-574.1,78.8-602.6,87.8-606.8z"/>
			<path class="st3" d="M88.9-606.8c-2.6,6.6-31.4,77.4-31.4,77.4l-2-40.7l-39.3,1.9l30.2,71.9h28.1l46.4-110.5L88.9-606.8
				L88.9-606.8z"/>
		</g>
		<rect x="132.9" y="-606.8" class="st3" width="28.7" height="110.4"/>
		<rect x="132.9" y="-649" class="st3" width="28.7" height="26.5"/>
		<polygon class="st3" points="382.6,-496.4 410.4,-496.4 445.8,-606.8 417.6,-606.8 396.1,-533.1 377.3,-606.8 349.5,-606.8 
			330.1,-533.1 309,-606.8 281.2,-606.8 316.1,-496.4 344.2,-496.4 363.2,-568.7 		"/>
		<path class="st3" d="M266.1-593c-9.4-10.8-22.5-16.3-38.9-16.3c-14.5,0-26.7,5.2-36.3,15.5c-9.5,10.3-14.3,24.8-14.3,43
			c0,15.3,3.7,28.1,10.9,38.1c9.2,12.5,23.5,18.8,42.6,18.8c12.1,0,22.3-2.8,30.3-8.4c7.3-5,11.7-11,16.6-21.6
			c2-4.4,2.3-7.3,2.3-7.3h-30v0.1c-1.6,5.5-4,9.5-7.1,12c-3.2,2.5-7.2,3.8-11.8,3.8c-6.8,0-12.6-2.5-17.2-7.4
			c-4.6-4.9-7-11.8-7.2-20.6v-0.3h73.6C280.1-565.6,275.5-582.3,266.1-593z M206.6-560.7v-0.3c-0.1-8.1,2-14.5,6.3-19.3
			c4.2-4.7,9.7-7.1,16.1-7.1c6.1,0,11.3,2.3,15.5,6.7c4.2,4.5,6.5,11.1,6.7,19.6v0.3L206.6-560.7L206.6-560.7z"/>
	</g>
</g>
<g>
	<g>
		<g>
			<path class="st4" d="M87.8,42.2H0L15.9,80C25.6,74.9,78.8,46.4,87.8,42.2z"/>
			<path class="st4" d="M88.9,42.2c-2.6,6.6-31.4,77.4-31.4,77.4l-2-40.7l-39.3,1.9l30.2,71.9h28.1l46.4-110.5L88.9,42.2L88.9,42.2z
				"/>
		</g>
		<rect x="132.9" y="42.2" class="st4" width="28.7" height="110.4"/>
		<rect x="132.9" y="0" class="st4" width="28.7" height="26.5"/>
		<polygon class="st4" points="382.6,152.6 410.4,152.6 445.8,42.2 417.6,42.2 396.1,116 377.3,42.2 349.5,42.2 330.1,115.9 
			309,42.2 281.2,42.2 316.1,152.6 344.2,152.6 363.2,80.3 		"/>
		<path class="st4" d="M266.1,56c-9.4-10.8-22.5-16.3-38.9-16.3c-14.5,0-26.7,5.2-36.3,15.5c-9.5,10.3-14.3,24.8-14.3,43
			c0,15.3,3.7,28.1,10.9,38.1c9.2,12.5,23.5,18.8,42.6,18.8c12.1,0,22.3-2.8,30.3-8.4c7.3-5,11.7-11,16.6-21.6
			c2-4.4,2.3-7.3,2.3-7.3h-30v0.1c-1.6,5.5-4,9.5-7.1,12c-3.2,2.5-7.2,3.8-11.8,3.8c-6.8,0-12.6-2.5-17.2-7.4
			c-4.6-4.9-7-11.8-7.2-20.6v-0.3h73.6C280.1,83.4,275.5,66.7,266.1,56z M206.6,88.3V88c-0.1-8.1,2-14.5,6.3-19.3
			c4.2-4.7,9.7-7.1,16.1-7.1c6.1,0,11.3,2.3,15.5,6.7c4.2,4.5,6.5,11.1,6.7,19.6v0.3h-44.6V88.3z"/>
	</g>
</g>
<g>
	<g>
		<rect x="985.2" y="-490.5" class="st1" width="311.6" height="40.8"/>
		
			<text transform="matrix(1 0 0 1 1147.6909 -461.5909)" class="st5" style="font-family:'HelveticaNeue-Bold'; font-size:40.458px;">com.au</text>
	</g>
	<g>
		<g>
			<path class="st5" d="M972.2-606.8h-87.8l15.9,37.8C910-574.1,963.2-602.6,972.2-606.8z"/>
			<path class="st5" d="M973.3-606.8c-2.6,6.6-31.4,77.4-31.4,77.4l-2-40.7l-39.3,1.9l30.2,71.9h28.1l46.4-110.5L973.3-606.8
				L973.3-606.8z"/>
		</g>
		<rect x="1017.3" y="-606.8" class="st5" width="28.7" height="110.4"/>
		<rect x="1017.3" y="-649" class="st5" width="28.7" height="26.5"/>
		<polygon class="st5" points="1267,-496.4 1294.8,-496.4 1330.2,-606.8 1302,-606.8 1280.5,-533.1 1261.7,-606.8 1233.9,-606.8 
			1214.5,-533.1 1193.4,-606.8 1165.6,-606.8 1200.5,-496.4 1228.6,-496.4 1247.7,-568.7 		"/>
		<path class="st5" d="M1150.5-593c-9.4-10.8-22.5-16.3-38.9-16.3c-14.5,0-26.7,5.2-36.3,15.5c-9.5,10.3-14.3,24.8-14.3,43
			c0,15.3,3.7,28.1,10.9,38.1c9.2,12.5,23.5,18.8,42.6,18.8c12.1,0,22.3-2.8,30.3-8.4c7.3-5,11.7-11,16.6-21.6
			c2-4.4,2.3-7.3,2.3-7.3h-30v0.1c-1.6,5.5-4,9.5-7.1,12c-3.2,2.5-7.2,3.8-11.8,3.8c-6.8,0-12.6-2.5-17.2-7.4s-7-11.8-7.2-20.6v-0.3
			h73.6C1164.5-565.6,1159.9-582.3,1150.5-593z M1091-560.7v-0.3c-0.1-8.1,2-14.5,6.3-19.3c4.2-4.7,9.7-7.1,16.1-7.1
			c6.1,0,11.3,2.3,15.5,6.7c4.2,4.5,6.5,11.1,6.7,19.6v0.3L1091-560.7L1091-560.7z"/>
	</g>
</g>
<g>
	<g>
		<g>
			<path class="st5" d="M972.2,42.2h-87.8L900.3,80C910,74.9,963.2,46.4,972.2,42.2z"/>
			<path class="st5" d="M973.3,42.2c-2.6,6.6-31.4,77.4-31.4,77.4l-2-40.7l-39.3,1.9l30.2,71.9h28.1l46.4-110.5L973.3,42.2
				L973.3,42.2z"/>
		</g>
		<rect x="1017.3" y="42.2" class="st5" width="28.7" height="110.4"/>
		<rect x="1017.3" y="0" class="st5" width="28.7" height="26.5"/>
		<polygon class="st5" points="1267,152.6 1294.8,152.6 1330.2,42.2 1302,42.2 1280.5,116 1261.7,42.2 1233.9,42.2 1214.5,115.9 
			1193.4,42.2 1165.6,42.2 1200.5,152.6 1228.6,152.6 1247.7,80.3 		"/>
		<path class="st5" d="M1150.5,56c-9.4-10.8-22.5-16.3-38.9-16.3c-14.5,0-26.7,5.2-36.3,15.5c-9.5,10.3-14.3,24.8-14.3,43
			c0,15.3,3.7,28.1,10.9,38.1c9.2,12.5,23.5,18.8,42.6,18.8c12.1,0,22.3-2.8,30.3-8.4c7.3-5,11.7-11,16.6-21.6
			c2-4.4,2.3-7.3,2.3-7.3h-30v0.1c-1.6,5.5-4,9.5-7.1,12c-3.2,2.5-7.2,3.8-11.8,3.8c-6.8,0-12.6-2.5-17.2-7.4s-7-11.8-7.2-20.6v-0.3
			h73.6C1164.5,83.4,1159.9,66.7,1150.5,56z M1091,88.3V88c-0.1-8.1,2-14.5,6.3-19.3c4.2-4.7,9.7-7.1,16.1-7.1
			c6.1,0,11.3,2.3,15.5,6.7c4.2,4.5,6.5,11.1,6.7,19.6v0.3H1091V88.3z"/>
	</g>
</g>
<g>
	<g>
		<rect x="1869.6" y="-490.5" class="st1" width="311.6" height="40.8"/>
		
			<text transform="matrix(1 0 0 1 2032.1006 -461.5909)" class="st5" style="font-family:'HelveticaNeue-Bold'; font-size:40.458px;">com.au</text>
	</g>
	<g>
		<g>
			<path class="st5" d="M1856.6-606.8h-87.8l15.9,37.8C1794.4-574.1,1847.6-602.6,1856.6-606.8z"/>
			<path class="st5" d="M1857.7-606.8c-2.6,6.6-31.4,77.4-31.4,77.4l-2-40.7l-39.3,1.9l30.2,71.9h28.1l46.4-110.5L1857.7-606.8
				L1857.7-606.8z"/>
		</g>
		<rect x="1901.7" y="-606.8" class="st5" width="28.7" height="110.4"/>
		<rect x="1901.7" y="-649" class="st5" width="28.7" height="26.5"/>
		<polygon class="st5" points="2151.5,-496.4 2179.2,-496.4 2214.6,-606.8 2186.4,-606.8 2164.9,-533.1 2146.1,-606.8 
			2118.3,-606.8 2098.9,-533.1 2077.9,-606.8 2050,-606.8 2084.9,-496.4 2113,-496.4 2132.1,-568.7 		"/>
		<path class="st5" d="M2034.9-593c-9.4-10.8-22.5-16.3-38.9-16.3c-14.5,0-26.7,5.2-36.3,15.5c-9.5,10.3-14.3,24.8-14.3,43
			c0,15.3,3.7,28.1,10.9,38.1c9.2,12.5,23.5,18.8,42.6,18.8c12.1,0,22.3-2.8,30.3-8.4c7.3-5,11.7-11,16.6-21.6
			c2-4.4,2.3-7.3,2.3-7.3h-30v0.1c-1.6,5.5-4,9.5-7.1,12c-3.2,2.5-7.2,3.8-11.8,3.8c-6.8,0-12.6-2.5-17.2-7.4s-7-11.8-7.2-20.6v-0.3
			h73.6C2048.9-565.6,2044.3-582.3,2034.9-593z M1975.4-560.7v-0.3c-0.1-8.1,2-14.5,6.3-19.3c4.2-4.7,9.7-7.1,16.1-7.1
			c6.1,0,11.3,2.3,15.5,6.7c4.2,4.5,6.5,11.1,6.7,19.6v0.3L1975.4-560.7L1975.4-560.7z"/>
	</g>
</g>
<linearGradient id="SVGID_2_" gradientUnits="userSpaceOnUse" x1="1449.8734" y1="533.7785" x2="2411.0037" y2="-272.7054" gradientTransform="matrix(1 0 0 -1 0 155.89)">
	<stop  offset="1.574519e-02" style="stop-color:#FCC200"/>
	<stop  offset="0.4549" style="stop-color:#EE7D00"/>
	<stop  offset="1" style="stop-color:#E52057"/>
</linearGradient>
<rect x="1570.8" y="-220.1" class="st6" width="841.9" height="593.8"/>
<g>
	<g>
		<g>
			<path class="st5" d="M1856.6,42.2h-87.8l15.9,37.8C1794.4,74.9,1847.6,46.4,1856.6,42.2z"/>
			<path class="st5" d="M1857.7,42.2c-2.6,6.6-31.4,77.4-31.4,77.4l-2-40.7l-39.3,1.9l30.2,71.9h28.1l46.4-110.5L1857.7,42.2
				L1857.7,42.2z"/>
		</g>
		<rect x="1901.7" y="42.2" class="st5" width="28.7" height="110.4"/>
		<rect x="1901.7" y="0" class="st5" width="28.7" height="26.5"/>
		<polygon class="st5" points="2151.5,152.6 2179.2,152.6 2214.6,42.2 2186.4,42.2 2164.9,116 2146.1,42.2 2118.3,42.2 
			2098.9,115.9 2077.9,42.2 2050,42.2 2084.9,152.6 2113,152.6 2132.1,80.3 		"/>
		<path class="st5" d="M2034.9,56c-9.4-10.8-22.5-16.3-38.9-16.3c-14.5,0-26.7,5.2-36.3,15.5c-9.5,10.3-14.3,24.8-14.3,43
			c0,15.3,3.7,28.1,10.9,38.1c9.2,12.5,23.5,18.8,42.6,18.8c12.1,0,22.3-2.8,30.3-8.4c7.3-5,11.7-11,16.6-21.6
			c2-4.4,2.3-7.3,2.3-7.3h-30v0.1c-1.6,5.5-4,9.5-7.1,12c-3.2,2.5-7.2,3.8-11.8,3.8c-6.8,0-12.6-2.5-17.2-7.4s-7-11.8-7.2-20.6v-0.3
			h73.6C2048.9,83.4,2044.3,66.7,2034.9,56z M1975.4,88.3V88c-0.1-8.1,2-14.5,6.3-19.3c4.2-4.7,9.7-7.1,16.1-7.1
			c6.1,0,11.3,2.3,15.5,6.7c4.2,4.5,6.5,11.1,6.7,19.6v0.3h-44.6V88.3z"/>
	</g>
</g>
<linearGradient id="SVGID_3_" gradientUnits="userSpaceOnUse" x1="1449.8734" y1="-98.2215" x2="2411.0037" y2="-904.7054" gradientTransform="matrix(1 0 0 -1 0 155.89)">
	<stop  offset="1.574519e-02" style="stop-color:#FCC200"/>
	<stop  offset="0.4549" style="stop-color:#EE7D00"/>
	<stop  offset="1" style="stop-color:#E52057"/>
</linearGradient>
<rect x="1570.8" y="411.9" class="st7" width="841.9" height="593.8"/>
<g>
	<g>
		<path class="st8" d="M46.2,781h13.4v2.5h-5.2v14h-2.9v-14h-5.2L46.2,781L46.2,781z"/>
		<path class="st8" d="M61.9,781h2.9v6.6h7.5V781h2.9v16.5h-2.9V790h-7.5v7.4h-2.9V781z"/>
		<path class="st8" d="M79.1,781H91v2.5h-9v4.3h8.3v2.4H82v4.8h9.1v2.5h-12V781z"/>
		<path class="st8" d="M101.4,781h7.3c1.2,0,2.1,0.2,2.9,0.5c0.7,0.3,1.3,0.8,1.7,1.3c0.4,0.5,0.7,1.1,0.8,1.7
			c0.1,0.6,0.2,1.2,0.2,1.7s-0.1,1.1-0.2,1.7c-0.1,0.6-0.4,1.1-0.8,1.7c-0.4,0.5-1,0.9-1.7,1.3c-0.7,0.3-1.7,0.5-2.9,0.5h-4.4v6.3
			h-2.9V781z M104.3,788.8h4.2c0.3,0,0.7,0,1-0.1s0.7-0.2,0.9-0.5c0.3-0.2,0.5-0.5,0.7-0.8s0.3-0.8,0.3-1.3s-0.1-1-0.2-1.3
			c-0.2-0.4-0.4-0.6-0.6-0.8c-0.3-0.2-0.6-0.3-0.9-0.4c-0.3-0.1-0.7-0.1-1.1-0.1h-4.3V788.8z"/>
		<path class="st8" d="M117.2,781h7.4c2.1,0,3.7,0.6,4.8,1.7c0.9,0.9,1.4,2.1,1.4,3.6l0,0c0,2.7-1.6,4.3-3.9,5l4.5,6.3H128l-4.1-5.8
			l0,0h-3.6v5.8h-2.9V781H117.2z M124.3,789.2c2.1,0,3.4-1.1,3.4-2.8l0,0c0-1.8-1.3-2.7-3.4-2.7h-4.2v5.5H124.3z"/>
		<path class="st8" d="M134.2,789.3L134.2,789.3c0-4.7,3.6-8.6,8.7-8.6c5.1,0,8.6,3.8,8.6,8.5l0,0c0,4.6-3.6,8.5-8.7,8.5
			C137.7,797.8,134.2,793.9,134.2,789.3z M148.4,789.3L148.4,789.3c0-3.3-2.3-5.9-5.6-5.9s-5.6,2.6-5.6,5.8l0,0
			c0,3.2,2.3,5.9,5.6,5.9C146.1,795.1,148.4,792.5,148.4,789.3z"/>
		<path class="st8" d="M155.3,781h7.3c1.2,0,2.1,0.2,2.9,0.5c0.7,0.3,1.3,0.8,1.7,1.3s0.7,1.1,0.8,1.7c0.1,0.6,0.2,1.2,0.2,1.7
			s-0.1,1.1-0.2,1.7c-0.1,0.6-0.4,1.1-0.8,1.7c-0.4,0.5-1,0.9-1.7,1.3c-0.7,0.3-1.7,0.5-2.9,0.5h-4.4v6.3h-2.9L155.3,781L155.3,781z
			 M158.2,788.8h4.2c0.3,0,0.7,0,1-0.1s0.7-0.2,0.9-0.5c0.3-0.2,0.5-0.5,0.7-0.8s0.3-0.8,0.3-1.3s-0.1-1-0.2-1.3
			c-0.2-0.4-0.4-0.6-0.6-0.8c-0.3-0.2-0.6-0.3-0.9-0.4c-0.3-0.1-0.7-0.1-1.1-0.1h-4.3L158.2,788.8L158.2,788.8z"/>
		<path class="st8" d="M170.8,781h11.9v2.5h-9v4.3h8.3v2.4h-8.3v4.8h9.1v2.5h-12V781z"/>
		<path class="st8" d="M186.1,781h7.4c2.1,0,3.7,0.6,4.8,1.7c0.9,0.9,1.4,2.1,1.4,3.6l0,0c0,2.7-1.6,4.3-3.9,5l4.5,6.3h-3.4
			l-4.1-5.8l0,0H189v5.8h-2.9V781z M193.2,789.2c2.1,0,3.4-1.1,3.4-2.8l0,0c0-1.8-1.3-2.7-3.4-2.7H189v5.5H193.2z"/>
		<path class="st8" d="M201.9,781h13.4v2.5H210v14h-2.9v-14h-5.2L201.9,781L201.9,781z"/>
		<path class="st8" d="M223.8,791l-6.2-10h3.3l4.4,7.4l4.3-7.4h3.2l-6.2,10v6.5h-2.9L223.8,791L223.8,791z"/>
		<path class="st8" d="M242.3,781h2.9v16.5h-2.9V781z"/>
		<path class="st8" d="M249.1,781h3l7.5,12.2l0,0V781h2.7v16.5h-3l-7.5-12.1h-0.1v12.1H249L249.1,781L249.1,781z"/>
		<path class="st8" d="M268.3,792c0,0.6,0.1,1.2,0.3,1.6c0.2,0.4,0.5,0.8,0.9,1.1s0.8,0.5,1.3,0.6s1,0.2,1.6,0.2s1.2-0.1,1.6-0.2
			c0.4-0.1,0.8-0.3,1.1-0.6c0.3-0.2,0.5-0.5,0.6-0.8s0.2-0.6,0.2-0.9c0-0.6-0.1-1.1-0.4-1.4c-0.3-0.3-0.6-0.5-0.9-0.6
			c-0.6-0.2-1.3-0.4-2-0.6c-0.8-0.2-1.7-0.4-2.9-0.8c-0.7-0.2-1.3-0.4-1.8-0.7s-0.8-0.6-1.1-1c-0.3-0.4-0.5-0.8-0.6-1.2
			s-0.2-0.8-0.2-1.3c0-0.8,0.2-1.6,0.5-2.2c0.3-0.6,0.8-1.1,1.4-1.5s1.2-0.7,1.9-0.9c0.7-0.2,1.5-0.3,2.2-0.3c0.9,0,1.7,0.1,2.4,0.3
			c0.8,0.2,1.4,0.6,2,1s1,1,1.4,1.7c0.3,0.7,0.5,1.4,0.5,2.3h-2.9c-0.1-1.1-0.4-1.8-1.1-2.3c-0.6-0.4-1.5-0.7-2.5-0.7
			c-0.3,0-0.7,0-1,0.1c-0.4,0.1-0.7,0.2-1,0.3c-0.3,0.2-0.5,0.4-0.7,0.7s-0.3,0.6-0.3,1c0,0.6,0.2,1,0.5,1.4
			c0.4,0.3,0.8,0.6,1.4,0.8c0.1,0,0.3,0.1,0.7,0.2c0.4,0.1,0.9,0.2,1.4,0.4c0.5,0.1,1,0.3,1.5,0.4c0.5,0.1,0.9,0.2,1.1,0.3
			c0.5,0.2,1,0.4,1.4,0.7s0.7,0.6,1,1s0.5,0.8,0.6,1.2s0.2,0.9,0.2,1.3c0,0.9-0.2,1.7-0.6,2.4s-0.9,1.2-1.5,1.6
			c-0.6,0.4-1.3,0.7-2.1,0.9c-0.8,0.2-1.6,0.3-2.4,0.3c-0.9,0-1.8-0.1-2.7-0.3c-0.8-0.2-1.6-0.6-2.2-1.1s-1.1-1.1-1.5-1.8
			S265,793,265,792L268.3,792L268.3,792z"/>
		<path class="st8" d="M281.9,781h2.9v16.5h-2.9V781z"/>
		<path class="st8" d="M288.2,789.3L288.2,789.3c0-4.7,3.5-8.6,8.5-8.6c2.9,0,4.6,0.8,6.3,2.2l-1.8,2.2c-1.3-1.1-2.5-1.8-4.6-1.8
			c-3,0-5.4,2.7-5.4,5.8l0,0c0,3.4,2.2,5.9,5.6,5.9c1.6,0,3-0.5,4-1.3v-3.1h-4.2v-2.5h7v6.9c-1.6,1.4-4,2.6-6.9,2.6
			C291.6,797.8,288.2,794.1,288.2,789.3z"/>
		<path class="st8" d="M307.7,781h2.9v6.6h7.5V781h2.9v16.5h-2.9V790h-7.5v7.4h-2.9V781z"/>
		<path class="st8" d="M323.3,781h13.4v2.5h-5.2v14h-2.9v-14h-5.2L323.3,781L323.3,781z"/>
		<path class="st8" d="M340.9,792c0,0.6,0.1,1.2,0.3,1.6c0.2,0.4,0.5,0.8,0.9,1.1s0.8,0.5,1.3,0.6s1,0.2,1.6,0.2s1.2-0.1,1.6-0.2
			c0.4-0.1,0.8-0.3,1.1-0.6c0.3-0.2,0.5-0.5,0.6-0.8s0.2-0.6,0.2-0.9c0-0.6-0.1-1.1-0.4-1.4c-0.3-0.3-0.6-0.5-0.9-0.6
			c-0.6-0.2-1.3-0.4-2-0.6c-0.8-0.2-1.7-0.4-2.9-0.8c-0.7-0.2-1.3-0.4-1.8-0.7s-0.8-0.6-1.1-1c-0.3-0.4-0.5-0.8-0.6-1.2
			s-0.2-0.8-0.2-1.3c0-0.8,0.2-1.6,0.5-2.2c0.3-0.6,0.8-1.1,1.4-1.5s1.2-0.7,1.9-0.9c0.7-0.2,1.5-0.3,2.2-0.3c0.9,0,1.7,0.1,2.4,0.3
			c0.8,0.2,1.4,0.6,2,1s1,1,1.4,1.7c0.3,0.7,0.5,1.4,0.5,2.3H348c-0.1-1.1-0.4-1.8-1.1-2.3c-0.6-0.4-1.5-0.7-2.5-0.7
			c-0.3,0-0.7,0-1,0.1c-0.4,0.1-0.7,0.2-1,0.3c-0.3,0.2-0.5,0.4-0.7,0.7s-0.3,0.6-0.3,1c0,0.6,0.2,1,0.5,1.4
			c0.4,0.3,0.8,0.6,1.4,0.8c0.1,0,0.3,0.1,0.7,0.2c0.4,0.1,0.9,0.2,1.4,0.4c0.5,0.1,1,0.3,1.5,0.4c0.5,0.1,0.9,0.2,1.1,0.3
			c0.5,0.2,1,0.4,1.4,0.7s0.7,0.6,1,1s0.5,0.8,0.6,1.2s0.2,0.9,0.2,1.3c0,0.9-0.2,1.7-0.6,2.4s-0.9,1.2-1.5,1.6
			c-0.6,0.4-1.3,0.7-2.1,0.9c-0.8,0.2-1.6,0.3-2.4,0.3c-0.9,0-1.8-0.1-2.7-0.3c-0.8-0.2-1.6-0.6-2.2-1.1s-1.1-1.1-1.5-1.8
			s-0.6-1.6-0.6-2.6L340.9,792L340.9,792z"/>
		<path class="st8" d="M363.7,792c0,0.6,0.1,1.2,0.3,1.6c0.2,0.4,0.5,0.8,0.9,1.1s0.8,0.5,1.3,0.6s1,0.2,1.6,0.2s1.2-0.1,1.6-0.2
			c0.4-0.1,0.8-0.3,1.1-0.6c0.3-0.2,0.5-0.5,0.6-0.8s0.2-0.6,0.2-0.9c0-0.6-0.1-1.1-0.4-1.4c-0.3-0.3-0.6-0.5-0.9-0.6
			c-0.6-0.2-1.3-0.4-2-0.6c-0.8-0.2-1.7-0.4-2.9-0.8c-0.7-0.2-1.3-0.4-1.8-0.7s-0.8-0.6-1.1-1c-0.3-0.4-0.5-0.8-0.6-1.2
			s-0.2-0.8-0.2-1.3c0-0.8,0.2-1.6,0.5-2.2c0.3-0.6,0.8-1.1,1.4-1.5s1.2-0.7,1.9-0.9c0.7-0.2,1.5-0.3,2.2-0.3c0.9,0,1.7,0.1,2.4,0.3
			c0.8,0.2,1.4,0.6,2,1s1,1,1.4,1.7c0.3,0.7,0.5,1.4,0.5,2.3h-2.9c-0.1-1.1-0.4-1.8-1.1-2.3c-0.6-0.4-1.5-0.7-2.5-0.7
			c-0.3,0-0.7,0-1,0.1c-0.4,0.1-0.7,0.2-1,0.3c-0.3,0.2-0.5,0.4-0.7,0.7s-0.3,0.6-0.3,1c0,0.6,0.2,1,0.5,1.4
			c0.4,0.3,0.8,0.6,1.4,0.8c0.1,0,0.3,0.1,0.7,0.2c0.4,0.1,0.9,0.2,1.4,0.4c0.5,0.1,1,0.3,1.5,0.4c0.5,0.1,0.9,0.2,1.1,0.3
			c0.5,0.2,1,0.4,1.4,0.7s0.7,0.6,1,1s0.5,0.8,0.6,1.2s0.2,0.9,0.2,1.3c0,0.9-0.2,1.7-0.6,2.4s-0.9,1.2-1.5,1.6
			c-0.6,0.4-1.3,0.7-2.1,0.9c-0.8,0.2-1.6,0.3-2.4,0.3c-0.9,0-1.8-0.1-2.7-0.3c-0.8-0.2-1.6-0.6-2.2-1.1s-1.1-1.1-1.5-1.8
			s-0.6-1.6-0.6-2.6L363.7,792L363.7,792z"/>
		<path class="st8" d="M377.3,781h2.9v16.5h-2.9V781z"/>
		<path class="st8" d="M382.5,781h13.4v2.5h-5.2v14h-2.9v-14h-5.2L382.5,781L382.5,781z"/>
		<path class="st8" d="M398.2,781h11.9v2.5h-9v4.3h8.3v2.4h-8.3v4.8h9.1v2.5h-12V781z"/>
	</g>
</g>
<g>
	<g>
		<path class="st3" d="M87.8,652.2H0L15.9,690C25.6,684.8,78.8,656.3,87.8,652.2z"/>
		<path class="st3" d="M88.9,652.2c-2.6,6.6-31.4,77.4-31.4,77.4l-2-40.7l-39.3,1.9l30.2,71.9h28.1l46.4-110.5L88.9,652.2
			L88.9,652.2z"/>
	</g>
	<rect x="132.9" y="652.2" class="st3" width="28.7" height="110.4"/>
	<rect x="132.9" y="609.9" class="st3" width="28.7" height="26.5"/>
	<polygon class="st3" points="382.6,762.6 410.4,762.6 445.8,652.2 417.6,652.2 396.1,725.9 377.3,652.2 349.5,652.2 330.1,725.9 
		309,652.2 281.2,652.2 316.1,762.6 344.2,762.6 363.2,690.2 	"/>
	<path class="st3" d="M266.1,665.9c-9.4-10.8-22.5-16.3-38.9-16.3c-14.5,0-26.7,5.2-36.3,15.5c-9.5,10.3-14.3,24.8-14.3,43
		c0,15.3,3.7,28.1,10.9,38.1c9.2,12.5,23.5,18.8,42.6,18.8c12.1,0,22.3-2.8,30.3-8.4c7.3-5,11.7-11,16.6-21.6c2-4.4,2.3-7.3,2.3-7.3
		h-30v0.1c-1.6,5.5-4,9.5-7.1,12c-3.2,2.5-7.2,3.8-11.8,3.8c-6.8,0-12.6-2.5-17.2-7.4c-4.6-4.9-7-11.8-7.2-20.6v-0.3h73.6
		C280.1,693.3,275.5,676.7,266.1,665.9z M206.6,698.2v-0.3c-0.1-8.1,2-14.5,6.3-19.3c4.2-4.7,9.7-7.1,16.1-7.1
		c6.1,0,11.3,2.3,15.5,6.7c4.2,4.5,6.5,11.1,6.7,19.6v0.3L206.6,698.2L206.6,698.2z"/>
</g>
<g>
	<g>
		<path class="st5" d="M930.7,781H944v2.5h-5.2v14h-2.9v-14h-5.2L930.7,781L930.7,781z"/>
		<path class="st5" d="M946.3,781h2.9v6.6h7.5V781h2.9v16.5h-2.9V790h-7.5v7.4h-2.9V781z"/>
		<path class="st5" d="M963.5,781h11.9v2.5h-9v4.3h8.3v2.4h-8.3v4.8h9.1v2.5h-12V781z"/>
		<path class="st5" d="M985.8,781h7.3c1.2,0,2.1,0.2,2.9,0.5c0.7,0.3,1.3,0.8,1.7,1.3s0.7,1.1,0.8,1.7c0.1,0.6,0.2,1.2,0.2,1.7
			s-0.1,1.1-0.2,1.7c-0.1,0.6-0.4,1.1-0.8,1.7c-0.4,0.5-1,0.9-1.7,1.3c-0.7,0.3-1.7,0.5-2.9,0.5h-4.4v6.3h-2.9L985.8,781L985.8,781z
			 M988.7,788.8h4.2c0.3,0,0.7,0,1-0.1s0.7-0.2,0.9-0.5c0.3-0.2,0.5-0.5,0.7-0.8s0.3-0.8,0.3-1.3s-0.1-1-0.2-1.3
			c-0.2-0.4-0.4-0.6-0.6-0.8c-0.3-0.2-0.6-0.3-0.9-0.4c-0.3-0.1-0.7-0.1-1.1-0.1h-4.3L988.7,788.8L988.7,788.8z"/>
		<path class="st5" d="M1001.6,781h7.4c2.1,0,3.7,0.6,4.8,1.7c0.9,0.9,1.4,2.1,1.4,3.6l0,0c0,2.7-1.6,4.3-3.9,5l4.5,6.3h-3.4
			l-4.1-5.8l0,0h-3.6v5.8h-2.9V781H1001.6z M1008.7,789.2c2.1,0,3.4-1.1,3.4-2.8l0,0c0-1.8-1.3-2.7-3.4-2.7h-4.2v5.5H1008.7z"/>
		<path class="st5" d="M1018.6,789.3L1018.6,789.3c0-4.7,3.6-8.6,8.7-8.6s8.6,3.8,8.6,8.5l0,0c0,4.6-3.6,8.5-8.7,8.5
			C1022.2,797.8,1018.6,793.9,1018.6,789.3z M1032.8,789.3L1032.8,789.3c0-3.3-2.3-5.9-5.6-5.9s-5.6,2.6-5.6,5.8l0,0
			c0,3.2,2.3,5.9,5.6,5.9C1030.6,795.1,1032.8,792.5,1032.8,789.3z"/>
		<path class="st5" d="M1039.7,781h7.3c1.2,0,2.1,0.2,2.9,0.5c0.7,0.3,1.3,0.8,1.7,1.3c0.4,0.5,0.7,1.1,0.8,1.7
			c0.1,0.6,0.2,1.2,0.2,1.7s-0.1,1.1-0.2,1.7c-0.1,0.6-0.4,1.1-0.8,1.7c-0.4,0.5-1,0.9-1.7,1.3c-0.7,0.3-1.7,0.5-2.9,0.5h-4.4v6.3
			h-2.9V781z M1042.6,788.8h4.2c0.3,0,0.7,0,1-0.1s0.7-0.2,0.9-0.5c0.3-0.2,0.5-0.5,0.7-0.8s0.3-0.8,0.3-1.3s-0.1-1-0.2-1.3
			c-0.2-0.4-0.4-0.6-0.6-0.8c-0.3-0.2-0.6-0.3-0.9-0.4c-0.3-0.1-0.7-0.1-1.1-0.1h-4.3V788.8z"/>
		<path class="st5" d="M1055.2,781h11.9v2.5h-9v4.3h8.3v2.4h-8.3v4.8h9.1v2.5h-12V781z"/>
		<path class="st5" d="M1070.5,781h7.4c2.1,0,3.7,0.6,4.8,1.7c0.9,0.9,1.4,2.1,1.4,3.6l0,0c0,2.7-1.6,4.3-3.9,5l4.5,6.3h-3.4
			l-4.1-5.8l0,0h-3.6v5.8h-2.9V781H1070.5z M1077.6,789.2c2.1,0,3.4-1.1,3.4-2.8l0,0c0-1.8-1.3-2.7-3.4-2.7h-4.2v5.5H1077.6z"/>
		<path class="st5" d="M1086.3,781h13.4v2.5h-5.2v14h-2.9v-14h-5.2V781H1086.3z"/>
		<path class="st5" d="M1108.2,791l-6.2-10h3.3l4.4,7.4l4.3-7.4h3.2l-6.2,10v6.5h-2.9L1108.2,791L1108.2,791z"/>
		<path class="st5" d="M1126.7,781h2.9v16.5h-2.9V781z"/>
		<path class="st5" d="M1133.5,781h3l7.5,12.2l0,0V781h2.7v16.5h-3l-7.5-12.1h-0.1v12.1h-2.7L1133.5,781L1133.5,781z"/>
		<path class="st5" d="M1152.7,792c0,0.6,0.1,1.2,0.3,1.6c0.2,0.4,0.5,0.8,0.9,1.1s0.8,0.5,1.3,0.6s1,0.2,1.6,0.2s1.2-0.1,1.6-0.2
			c0.4-0.1,0.8-0.3,1.1-0.6c0.3-0.2,0.5-0.5,0.6-0.8s0.2-0.6,0.2-0.9c0-0.6-0.1-1.1-0.4-1.4c-0.3-0.3-0.6-0.5-0.9-0.6
			c-0.6-0.2-1.3-0.4-2-0.6c-0.8-0.2-1.7-0.4-2.9-0.8c-0.7-0.2-1.3-0.4-1.8-0.7s-0.8-0.6-1.1-1c-0.3-0.4-0.5-0.8-0.6-1.2
			s-0.2-0.8-0.2-1.3c0-0.8,0.2-1.6,0.5-2.2c0.3-0.6,0.8-1.1,1.4-1.5s1.2-0.7,1.9-0.9c0.7-0.2,1.5-0.3,2.2-0.3c0.9,0,1.7,0.1,2.4,0.3
			c0.8,0.2,1.4,0.6,2,1s1,1,1.4,1.7c0.3,0.7,0.5,1.4,0.5,2.3h-2.9c-0.1-1.1-0.4-1.8-1.1-2.3c-0.6-0.4-1.5-0.7-2.5-0.7
			c-0.3,0-0.7,0-1,0.1c-0.4,0.1-0.7,0.2-1,0.3c-0.3,0.2-0.5,0.4-0.7,0.7s-0.3,0.6-0.3,1c0,0.6,0.2,1,0.5,1.4
			c0.4,0.3,0.8,0.6,1.4,0.8c0.1,0,0.3,0.1,0.7,0.2c0.4,0.1,0.9,0.2,1.4,0.4c0.5,0.1,1,0.3,1.5,0.4c0.5,0.1,0.9,0.2,1.1,0.3
			c0.5,0.2,1,0.4,1.4,0.7s0.7,0.6,1,1s0.5,0.8,0.6,1.2s0.2,0.9,0.2,1.3c0,0.9-0.2,1.7-0.6,2.4s-0.9,1.2-1.5,1.6
			c-0.6,0.4-1.3,0.7-2.1,0.9c-0.8,0.2-1.6,0.3-2.4,0.3c-0.9,0-1.8-0.1-2.7-0.3c-0.8-0.2-1.6-0.6-2.2-1.1s-1.1-1.1-1.5-1.8
			s-0.6-1.6-0.6-2.6L1152.7,792L1152.7,792z"/>
		<path class="st5" d="M1166.3,781h2.9v16.5h-2.9V781z"/>
		<path class="st5" d="M1172.6,789.3L1172.6,789.3c0-4.7,3.5-8.6,8.5-8.6c2.9,0,4.6,0.8,6.3,2.2l-1.8,2.2c-1.3-1.1-2.5-1.8-4.6-1.8
			c-3,0-5.4,2.7-5.4,5.8l0,0c0,3.4,2.2,5.9,5.6,5.9c1.6,0,3-0.5,4-1.3v-3.1h-4.2v-2.5h7v6.9c-1.6,1.4-4,2.6-6.9,2.6
			C1176,797.8,1172.6,794.1,1172.6,789.3z"/>
		<path class="st5" d="M1192.1,781h2.9v6.6h7.5V781h2.9v16.5h-2.9V790h-7.5v7.4h-2.9V781z"/>
		<path class="st5" d="M1207.7,781h13.4v2.5h-5.2v14h-2.9v-14h-5.2V781H1207.7z"/>
		<path class="st5" d="M1225.3,792c0,0.6,0.1,1.2,0.3,1.6c0.2,0.4,0.5,0.8,0.9,1.1s0.8,0.5,1.3,0.6s1,0.2,1.6,0.2s1.2-0.1,1.6-0.2
			c0.4-0.1,0.8-0.3,1.1-0.6c0.3-0.2,0.5-0.5,0.6-0.8s0.2-0.6,0.2-0.9c0-0.6-0.1-1.1-0.4-1.4c-0.3-0.3-0.6-0.5-0.9-0.6
			c-0.6-0.2-1.3-0.4-2-0.6c-0.8-0.2-1.7-0.4-2.9-0.8c-0.7-0.2-1.3-0.4-1.8-0.7s-0.8-0.6-1.1-1c-0.3-0.4-0.5-0.8-0.6-1.2
			s-0.2-0.8-0.2-1.3c0-0.8,0.2-1.6,0.5-2.2c0.3-0.6,0.8-1.1,1.4-1.5s1.2-0.7,1.9-0.9c0.7-0.2,1.5-0.3,2.2-0.3c0.9,0,1.7,0.1,2.4,0.3
			c0.8,0.2,1.4,0.6,2,1s1,1,1.4,1.7c0.3,0.7,0.5,1.4,0.5,2.3h-2.9c-0.1-1.1-0.4-1.8-1.1-2.3c-0.6-0.4-1.5-0.7-2.5-0.7
			c-0.3,0-0.7,0-1,0.1c-0.4,0.1-0.7,0.2-1,0.3c-0.3,0.2-0.5,0.4-0.7,0.7s-0.3,0.6-0.3,1c0,0.6,0.2,1,0.5,1.4
			c0.4,0.3,0.8,0.6,1.4,0.8c0.1,0,0.3,0.1,0.7,0.2c0.4,0.1,0.9,0.2,1.4,0.4c0.5,0.1,1,0.3,1.5,0.4c0.5,0.1,0.9,0.2,1.1,0.3
			c0.5,0.2,1,0.4,1.4,0.7s0.7,0.6,1,1s0.5,0.8,0.6,1.2s0.2,0.9,0.2,1.3c0,0.9-0.2,1.7-0.6,2.4s-0.9,1.2-1.5,1.6
			c-0.6,0.4-1.3,0.7-2.1,0.9c-0.8,0.2-1.6,0.3-2.4,0.3c-0.9,0-1.8-0.1-2.7-0.3c-0.8-0.2-1.6-0.6-2.2-1.1s-1.1-1.1-1.5-1.8
			s-0.6-1.6-0.6-2.6L1225.3,792L1225.3,792z"/>
		<path class="st5" d="M1248.1,792c0,0.6,0.1,1.2,0.3,1.6c0.2,0.4,0.5,0.8,0.9,1.1s0.8,0.5,1.3,0.6s1,0.2,1.6,0.2s1.2-0.1,1.6-0.2
			c0.4-0.1,0.8-0.3,1.1-0.6c0.3-0.2,0.5-0.5,0.6-0.8s0.2-0.6,0.2-0.9c0-0.6-0.1-1.1-0.4-1.4c-0.3-0.3-0.6-0.5-0.9-0.6
			c-0.6-0.2-1.3-0.4-2-0.6c-0.8-0.2-1.7-0.4-2.9-0.8c-0.7-0.2-1.3-0.4-1.8-0.7s-0.8-0.6-1.1-1c-0.3-0.4-0.5-0.8-0.6-1.2
			s-0.2-0.8-0.2-1.3c0-0.8,0.2-1.6,0.5-2.2c0.3-0.6,0.8-1.1,1.4-1.5s1.2-0.7,1.9-0.9c0.7-0.2,1.5-0.3,2.2-0.3c0.9,0,1.7,0.1,2.4,0.3
			c0.8,0.2,1.4,0.6,2,1s1,1,1.4,1.7c0.3,0.7,0.5,1.4,0.5,2.3h-2.9c-0.1-1.1-0.4-1.8-1.1-2.3c-0.6-0.4-1.5-0.7-2.5-0.7
			c-0.3,0-0.7,0-1,0.1c-0.4,0.1-0.7,0.2-1,0.3c-0.3,0.2-0.5,0.4-0.7,0.7s-0.3,0.6-0.3,1c0,0.6,0.2,1,0.5,1.4
			c0.4,0.3,0.8,0.6,1.4,0.8c0.1,0,0.3,0.1,0.7,0.2c0.4,0.1,0.9,0.2,1.4,0.4c0.5,0.1,1,0.3,1.5,0.4c0.5,0.1,0.9,0.2,1.1,0.3
			c0.5,0.2,1,0.4,1.4,0.7s0.7,0.6,1,1s0.5,0.8,0.6,1.2s0.2,0.9,0.2,1.3c0,0.9-0.2,1.7-0.6,2.4s-0.9,1.2-1.5,1.6
			c-0.6,0.4-1.3,0.7-2.1,0.9c-0.8,0.2-1.6,0.3-2.4,0.3c-0.9,0-1.8-0.1-2.7-0.3c-0.8-0.2-1.6-0.6-2.2-1.1s-1.1-1.1-1.5-1.8
			s-0.6-1.6-0.6-2.6L1248.1,792L1248.1,792z"/>
		<path class="st5" d="M1261.7,781h2.9v16.5h-2.9V781z"/>
		<path class="st5" d="M1266.9,781h13.4v2.5h-5.2v14h-2.9v-14h-5.2V781H1266.9z"/>
		<path class="st5" d="M1282.6,781h11.9v2.5h-9v4.3h8.3v2.4h-8.3v4.8h9.1v2.5h-12V781z"/>
	</g>
</g>
<g>
	<g>
		<path class="st5" d="M972.2,652.2h-87.8l15.9,37.8C910,684.8,963.2,656.3,972.2,652.2z"/>
		<path class="st5" d="M973.3,652.2c-2.6,6.6-31.4,77.4-31.4,77.4l-2-40.7l-39.3,1.9l30.2,71.9h28.1l46.4-110.5L973.3,652.2
			L973.3,652.2z"/>
	</g>
	<rect x="1017.3" y="652.2" class="st5" width="28.7" height="110.4"/>
	<rect x="1017.3" y="609.9" class="st5" width="28.7" height="26.5"/>
	<polygon class="st5" points="1267,762.6 1294.8,762.6 1330.2,652.2 1302,652.2 1280.5,725.9 1261.7,652.2 1233.9,652.2 
		1214.5,725.9 1193.4,652.2 1165.6,652.2 1200.5,762.6 1228.6,762.6 1247.7,690.2 	"/>
	<path class="st5" d="M1150.5,665.9c-9.4-10.8-22.5-16.3-38.9-16.3c-14.5,0-26.7,5.2-36.3,15.5c-9.5,10.3-14.3,24.8-14.3,43
		c0,15.3,3.7,28.1,10.9,38.1c9.2,12.5,23.5,18.8,42.6,18.8c12.1,0,22.3-2.8,30.3-8.4c7.3-5,11.7-11,16.6-21.6c2-4.4,2.3-7.3,2.3-7.3
		h-30v0.1c-1.6,5.5-4,9.5-7.1,12c-3.2,2.5-7.2,3.8-11.8,3.8c-6.8,0-12.6-2.5-17.2-7.4s-7-11.8-7.2-20.6v-0.3h73.6
		C1164.5,693.3,1159.9,676.7,1150.5,665.9z M1091,698.2v-0.3c-0.1-8.1,2-14.5,6.3-19.3c4.2-4.7,9.7-7.1,16.1-7.1
		c6.1,0,11.3,2.3,15.5,6.7c4.2,4.5,6.5,11.1,6.7,19.6v0.3L1091,698.2L1091,698.2z"/>
</g>
<g>
	<g>
		<path class="st5" d="M1815.1,781h13.4v2.5h-5.2v14h-2.9v-14h-5.2V781H1815.1z"/>
		<path class="st5" d="M1830.7,781h2.9v6.6h7.5V781h2.9v16.5h-2.9V790h-7.5v7.4h-2.9V781z"/>
		<path class="st5" d="M1847.9,781h11.9v2.5h-9v4.3h8.3v2.4h-8.3v4.8h9.1v2.5h-12V781z"/>
		<path class="st5" d="M1870.3,781h7.3c1.2,0,2.1,0.2,2.9,0.5c0.7,0.3,1.3,0.8,1.7,1.3c0.4,0.5,0.7,1.1,0.8,1.7
			c0.1,0.6,0.2,1.2,0.2,1.7s-0.1,1.1-0.2,1.7c-0.1,0.6-0.4,1.1-0.8,1.7c-0.4,0.5-1,0.9-1.7,1.3c-0.7,0.3-1.7,0.5-2.9,0.5h-4.4v6.3
			h-2.9V781z M1873.1,788.8h4.2c0.3,0,0.7,0,1-0.1s0.7-0.2,0.9-0.5c0.3-0.2,0.5-0.5,0.7-0.8s0.3-0.8,0.3-1.3s-0.1-1-0.2-1.3
			c-0.2-0.4-0.4-0.6-0.6-0.8c-0.3-0.2-0.6-0.3-0.9-0.4c-0.3-0.1-0.7-0.1-1.1-0.1h-4.3V788.8z"/>
		<path class="st5" d="M1886,781h7.4c2.1,0,3.7,0.6,4.8,1.7c0.9,0.9,1.4,2.1,1.4,3.6l0,0c0,2.7-1.6,4.3-3.9,5l4.5,6.3h-3.4l-4.1-5.8
			l0,0h-3.6v5.8h-2.9V781H1886z M1893.1,789.2c2.1,0,3.4-1.1,3.4-2.8l0,0c0-1.8-1.3-2.7-3.4-2.7h-4.2v5.5H1893.1z"/>
		<path class="st5" d="M1903,789.3L1903,789.3c0-4.7,3.6-8.6,8.7-8.6s8.6,3.8,8.6,8.5l0,0c0,4.6-3.6,8.5-8.7,8.5
			S1903,793.9,1903,789.3z M1917.3,789.3L1917.3,789.3c0-3.3-2.3-5.9-5.6-5.9s-5.6,2.6-5.6,5.8l0,0c0,3.2,2.3,5.9,5.6,5.9
			S1917.3,792.5,1917.3,789.3z"/>
		<path class="st5" d="M1924.2,781h7.3c1.2,0,2.1,0.2,2.9,0.5c0.7,0.3,1.3,0.8,1.7,1.3c0.4,0.5,0.7,1.1,0.8,1.7
			c0.1,0.6,0.2,1.2,0.2,1.7s-0.1,1.1-0.2,1.7c-0.1,0.6-0.4,1.1-0.8,1.7c-0.4,0.5-1,0.9-1.7,1.3c-0.7,0.3-1.7,0.5-2.9,0.5h-4.4v6.3
			h-2.9V781z M1927,788.8h4.2c0.3,0,0.7,0,1-0.1s0.7-0.2,0.9-0.5c0.3-0.2,0.5-0.5,0.7-0.8s0.3-0.8,0.3-1.3s-0.1-1-0.2-1.3
			c-0.2-0.4-0.4-0.6-0.6-0.8c-0.3-0.2-0.6-0.3-0.9-0.4c-0.3-0.1-0.7-0.1-1.1-0.1h-4.3V788.8z"/>
		<path class="st5" d="M1939.6,781h11.9v2.5h-9v4.3h8.3v2.4h-8.3v4.8h9.1v2.5h-12V781z"/>
		<path class="st5" d="M1954.9,781h7.4c2.1,0,3.7,0.6,4.8,1.7c0.9,0.9,1.4,2.1,1.4,3.6l0,0c0,2.7-1.6,4.3-3.9,5l4.5,6.3h-3.4
			l-4.1-5.8l0,0h-3.6v5.8h-2.9V781H1954.9z M1962.1,789.2c2.1,0,3.4-1.1,3.4-2.8l0,0c0-1.8-1.3-2.7-3.4-2.7h-4.2v5.5H1962.1z"/>
		<path class="st5" d="M1970.7,781h13.4v2.5h-5.2v14h-2.9v-14h-5.2V781H1970.7z"/>
		<path class="st5" d="M1992.6,791l-6.2-10h3.3l4.4,7.4l4.3-7.4h3.2l-6.2,10v6.5h-2.9L1992.6,791L1992.6,791z"/>
		<path class="st5" d="M2011.1,781h2.9v16.5h-2.9V781z"/>
		<path class="st5" d="M2017.9,781h3l7.5,12.2l0,0V781h2.7v16.5h-3l-7.5-12.1h-0.1v12.1h-2.7L2017.9,781L2017.9,781z"/>
		<path class="st5" d="M2037.1,792c0,0.6,0.1,1.2,0.3,1.6c0.2,0.4,0.5,0.8,0.9,1.1s0.8,0.5,1.3,0.6s1,0.2,1.6,0.2s1.2-0.1,1.6-0.2
			c0.4-0.1,0.8-0.3,1.1-0.6c0.3-0.2,0.5-0.5,0.6-0.8s0.2-0.6,0.2-0.9c0-0.6-0.1-1.1-0.4-1.4c-0.3-0.3-0.6-0.5-0.9-0.6
			c-0.6-0.2-1.3-0.4-2-0.6c-0.8-0.2-1.7-0.4-2.9-0.8c-0.7-0.2-1.3-0.4-1.8-0.7s-0.8-0.6-1.1-1c-0.3-0.4-0.5-0.8-0.6-1.2
			s-0.2-0.8-0.2-1.3c0-0.8,0.2-1.6,0.5-2.2c0.3-0.6,0.8-1.1,1.4-1.5s1.2-0.7,1.9-0.9c0.7-0.2,1.5-0.3,2.2-0.3c0.9,0,1.7,0.1,2.4,0.3
			c0.8,0.2,1.4,0.6,2,1s1,1,1.4,1.7c0.3,0.7,0.5,1.4,0.5,2.3h-2.9c-0.1-1.1-0.4-1.8-1.1-2.3c-0.6-0.4-1.5-0.7-2.5-0.7
			c-0.3,0-0.7,0-1,0.1c-0.4,0.1-0.7,0.2-1,0.3c-0.3,0.2-0.5,0.4-0.7,0.7s-0.3,0.6-0.3,1c0,0.6,0.2,1,0.5,1.4
			c0.4,0.3,0.8,0.6,1.4,0.8c0.1,0,0.3,0.1,0.7,0.2c0.4,0.1,0.9,0.2,1.4,0.4c0.5,0.1,1,0.3,1.5,0.4c0.5,0.1,0.9,0.2,1.1,0.3
			c0.5,0.2,1,0.4,1.4,0.7s0.7,0.6,1,1s0.5,0.8,0.6,1.2s0.2,0.9,0.2,1.3c0,0.9-0.2,1.7-0.6,2.4s-0.9,1.2-1.5,1.6
			c-0.6,0.4-1.3,0.7-2.1,0.9c-0.8,0.2-1.6,0.3-2.4,0.3c-0.9,0-1.8-0.1-2.7-0.3c-0.8-0.2-1.6-0.6-2.2-1.1s-1.1-1.1-1.5-1.8
			s-0.6-1.6-0.6-2.6L2037.1,792L2037.1,792z"/>
		<path class="st5" d="M2050.7,781h2.9v16.5h-2.9V781z"/>
		<path class="st5" d="M2057,789.3L2057,789.3c0-4.7,3.5-8.6,8.5-8.6c2.9,0,4.6,0.8,6.3,2.2l-1.8,2.2c-1.3-1.1-2.5-1.8-4.6-1.8
			c-3,0-5.4,2.7-5.4,5.8l0,0c0,3.4,2.2,5.9,5.6,5.9c1.6,0,3-0.5,4-1.3v-3.1h-4.2v-2.5h7v6.9c-1.6,1.4-4,2.6-6.9,2.6
			C2060.4,797.8,2057,794.1,2057,789.3z"/>
		<path class="st5" d="M2076.5,781h2.9v6.6h7.5V781h2.9v16.5h-2.9V790h-7.5v7.4h-2.9V781z"/>
		<path class="st5" d="M2092.1,781h13.4v2.5h-5.2v14h-2.9v-14h-5.2V781H2092.1z"/>
		<path class="st5" d="M2109.7,792c0,0.6,0.1,1.2,0.3,1.6c0.2,0.4,0.5,0.8,0.9,1.1s0.8,0.5,1.3,0.6s1,0.2,1.6,0.2s1.2-0.1,1.6-0.2
			c0.4-0.1,0.8-0.3,1.1-0.6c0.3-0.2,0.5-0.5,0.6-0.8s0.2-0.6,0.2-0.9c0-0.6-0.1-1.1-0.4-1.4c-0.3-0.3-0.6-0.5-0.9-0.6
			c-0.6-0.2-1.3-0.4-2-0.6c-0.8-0.2-1.7-0.4-2.9-0.8c-0.7-0.2-1.3-0.4-1.8-0.7s-0.8-0.6-1.1-1s-0.5-0.8-0.6-1.2s-0.2-0.8-0.2-1.3
			c0-0.8,0.2-1.6,0.5-2.2c0.3-0.6,0.8-1.1,1.4-1.5c0.6-0.4,1.2-0.7,1.9-0.9s1.5-0.3,2.2-0.3c0.9,0,1.7,0.1,2.4,0.3
			c0.8,0.2,1.4,0.6,2,1s1,1,1.4,1.7c0.3,0.7,0.5,1.4,0.5,2.3h-2.9c-0.1-1.1-0.4-1.8-1.1-2.3c-0.6-0.4-1.5-0.7-2.5-0.7
			c-0.3,0-0.7,0-1,0.1c-0.4,0.1-0.7,0.2-1,0.3c-0.3,0.2-0.5,0.4-0.7,0.7s-0.3,0.6-0.3,1c0,0.6,0.2,1,0.5,1.4
			c0.4,0.3,0.8,0.6,1.4,0.8c0.1,0,0.3,0.1,0.7,0.2c0.4,0.1,0.9,0.2,1.4,0.4c0.5,0.1,1,0.3,1.5,0.4c0.5,0.1,0.9,0.2,1.1,0.3
			c0.5,0.2,1,0.4,1.4,0.7s0.7,0.6,1,1s0.5,0.8,0.6,1.2s0.2,0.9,0.2,1.3c0,0.9-0.2,1.7-0.6,2.4c-0.4,0.7-0.9,1.2-1.5,1.6
			c-0.6,0.4-1.3,0.7-2.1,0.9s-1.6,0.3-2.4,0.3c-0.9,0-1.8-0.1-2.7-0.3c-0.8-0.2-1.6-0.6-2.2-1.1c-0.6-0.5-1.1-1.1-1.5-1.8
			s-0.6-1.6-0.6-2.6L2109.7,792L2109.7,792z"/>
		<path class="st5" d="M2132.5,792c0,0.6,0.1,1.2,0.3,1.6c0.2,0.4,0.5,0.8,0.9,1.1s0.8,0.5,1.3,0.6s1,0.2,1.6,0.2s1.2-0.1,1.6-0.2
			c0.4-0.1,0.8-0.3,1.1-0.6c0.3-0.2,0.5-0.5,0.6-0.8s0.2-0.6,0.2-0.9c0-0.6-0.1-1.1-0.4-1.4c-0.3-0.3-0.6-0.5-0.9-0.6
			c-0.6-0.2-1.3-0.4-2-0.6c-0.8-0.2-1.7-0.4-2.9-0.8c-0.7-0.2-1.3-0.4-1.8-0.7s-0.8-0.6-1.1-1s-0.5-0.8-0.6-1.2s-0.2-0.8-0.2-1.3
			c0-0.8,0.2-1.6,0.5-2.2c0.3-0.6,0.8-1.1,1.4-1.5c0.6-0.4,1.2-0.7,1.9-0.9s1.5-0.3,2.2-0.3c0.9,0,1.7,0.1,2.4,0.3
			c0.8,0.2,1.4,0.6,2,1s1,1,1.4,1.7c0.3,0.7,0.5,1.4,0.5,2.3h-2.9c-0.1-1.1-0.4-1.8-1.1-2.3c-0.6-0.4-1.5-0.7-2.5-0.7
			c-0.3,0-0.7,0-1,0.1c-0.4,0.1-0.7,0.2-1,0.3c-0.3,0.2-0.5,0.4-0.7,0.7s-0.3,0.6-0.3,1c0,0.6,0.2,1,0.5,1.4
			c0.4,0.3,0.8,0.6,1.4,0.8c0.1,0,0.3,0.1,0.7,0.2c0.4,0.1,0.9,0.2,1.4,0.4c0.5,0.1,1,0.3,1.5,0.4c0.5,0.1,0.9,0.2,1.1,0.3
			c0.5,0.2,1,0.4,1.4,0.7s0.7,0.6,1,1s0.5,0.8,0.6,1.2s0.2,0.9,0.2,1.3c0,0.9-0.2,1.7-0.6,2.4c-0.4,0.7-0.9,1.2-1.5,1.6
			c-0.6,0.4-1.3,0.7-2.1,0.9s-1.6,0.3-2.4,0.3c-0.9,0-1.8-0.1-2.7-0.3c-0.8-0.2-1.6-0.6-2.2-1.1c-0.6-0.5-1.1-1.1-1.5-1.8
			s-0.6-1.6-0.6-2.6L2132.5,792L2132.5,792z"/>
		<path class="st5" d="M2146.1,781h2.9v16.5h-2.9V781z"/>
		<path class="st5" d="M2151.3,781h13.4v2.5h-5.2v14h-2.9v-14h-5.2V781H2151.3z"/>
		<path class="st5" d="M2167,781h11.9v2.5h-9v4.3h8.3v2.4h-8.3v4.8h9.1v2.5h-12V781z"/>
	</g>
</g>
<g>
	<g>
		<path class="st5" d="M1856.6,652.2h-87.8l15.9,37.8C1794.4,684.8,1847.6,656.3,1856.6,652.2z"/>
		<path class="st5" d="M1857.7,652.2c-2.6,6.6-31.4,77.4-31.4,77.4l-2-40.7l-39.3,1.9l30.2,71.9h28.1l46.4-110.5L1857.7,652.2
			L1857.7,652.2z"/>
	</g>
	<rect x="1901.7" y="652.2" class="st5" width="28.7" height="110.4"/>
	<rect x="1901.7" y="609.9" class="st5" width="28.7" height="26.5"/>
	<polygon class="st5" points="2151.5,762.6 2179.2,762.6 2214.6,652.2 2186.4,652.2 2164.9,725.9 2146.1,652.2 2118.3,652.2 
		2098.9,725.9 2077.9,652.2 2050,652.2 2084.9,762.6 2113,762.6 2132.1,690.2 	"/>
	<path class="st5" d="M2034.9,665.9c-9.4-10.8-22.5-16.3-38.9-16.3c-14.5,0-26.7,5.2-36.3,15.5c-9.5,10.3-14.3,24.8-14.3,43
		c0,15.3,3.7,28.1,10.9,38.1c9.2,12.5,23.5,18.8,42.6,18.8c12.1,0,22.3-2.8,30.3-8.4c7.3-5,11.7-11,16.6-21.6c2-4.4,2.3-7.3,2.3-7.3
		h-30v0.1c-1.6,5.5-4,9.5-7.1,12c-3.2,2.5-7.2,3.8-11.8,3.8c-6.8,0-12.6-2.5-17.2-7.4s-7-11.8-7.2-20.6v-0.3h73.6
		C2048.9,693.3,2044.3,676.7,2034.9,665.9z M1975.4,698.2v-0.3c-0.1-8.1,2-14.5,6.3-19.3c4.2-4.7,9.7-7.1,16.1-7.1
		c6.1,0,11.3,2.3,15.5,6.7c4.2,4.5,6.5,11.1,6.7,19.6v0.3L1975.4,698.2L1975.4,698.2z"/>
</g>
<linearGradient id="SVGID_4_" gradientUnits="userSpaceOnUse" x1="-318.938" y1="-756.212" x2="642.1921" y2="-1562.6959" gradientTransform="matrix(1 0 0 -1 0 155.89)">
	<stop  offset="1.574519e-02" style="stop-color:#FCC200"/>
	<stop  offset="0.4549" style="stop-color:#EE7D00"/>
	<stop  offset="1" style="stop-color:#E52057"/>
</linearGradient>
<rect x="-198" y="1069.9" class="st9" width="841.9" height="593.8"/>
</svg>
